# xmcd CD database file
#
# Track frame offsets:
#	150
#	51070
#	103860
#	160612
#	208452
#
# Disc length: 3330 seconds
#
# Revision: 0
# Processed by: cddbd v1.5.1PL2 Copyright (c) Steve Scherf et al.
# Submitted via: CDex 1.50
#
DISCID=410d0005
DTITLE=Paul Warburton Quartet - Speak Low
DYEAR=1997
DGENRE=Jazz
TTITLE0=Boplicity
TTITLE1=I Fall In Love Too Easily
TTITLE2=Speak Low
TTITLE3=My One And Only Love
TTITLE4=How Deep Is The Ocean
EXTD=YEAR: 1997
EXTT0=
EXTT1=
EXTT2=
EXTT3=
EXTT4=
PLAYORDER=
